# xmcd CD database file
#
# Track frame offsets:
#	210
#	19868
#	40388
#	55922
#	69212
#	93863
#	114032
#	130369
#	150233
#	173669
#	190425
#	203852
#	217744
#	234960
#	245651
#	261698
#
# Disc length: 3937 seconds
#
# Revision: 3
# Processed by: cddbd v1.4PL0 Copyright (c) Steve Scherf et al.
# Submitted via: Feurio! 1.66 - http://www.feurio.com
#
DISCID=d40f5f10
DTITLE=Various Artist - Terra Nostra (Banda Original)
DYEAR=1900
DGENRE=Brasileira
TTITLE0=Agnaldo Rayol &Charlotte Church  -  Tormento D'Amore
TTITLE1=Jose Augusto -  O Sole Mio
TTITLE2=Toquinho - Comme Facette M`mmeta
TTITLE3=Emlio Santiago - La Signora di Trent'Anni Fa
TTITLE4=Caetano Veloso  - Luna Rossa
TTITLE5=Mafalda Minnozzi  - Come Le Rose
TTITLE6=Sandy and Junior - Malia
TTITLE7=Paulo Szot and David Marcondes - Non ti Scordar di me
TTITLE8=Zizi Possi - La Creme Napolitane-Vurria
TTITLE9=Stefano Saturnini - Nuvole Libere
TTITLE10=Familia Lima - Funiculi Funicula
TTITLE11=Jerry Adriani - Santa Lucia Lontana
TTITLE12=Netinho - O Surdato 'Nnammurato
TTITLE13=Nova Era - Serena
TTITLE14=Marcus Viana - Canzone per un Sognatore
TTITLE15=Marcus Viana and Transfonica Orkestra - Tarantella - Tosca - Speranza- 
TTITLE15=Cavalleria Rusticana 
EXTD=ProduMédia Sanumbila - Beto Bumbu
EXTT0=
EXTT1=
EXTT2=
EXTT3=
EXTT4=
EXTT5=
EXTT6=
EXTT7=
EXTT8=
EXTT9=
EXTT10=
EXTT11=
EXTT12=
EXTT13=
EXTT14=
EXTT15=
PLAYORDER=
